<svg xmlns="http://www.w3.org/2000/svg" width="48" height="48" viewBox="0 0 112.35 133.62" class="position-absolute stars"><g><path d="M112.35,3.24c-1.6-.35-1.3,1.31-2,1.91-.15.13-.13.43-.27.58a43.54,43.54,0,0,1-8.6,8.33c-2.35,1.59-4.45,3.53-6.87,5.48.75.73,1.46,1.47,2.23,2.14,1.83,1.6,3.82,3.05,5.51,4.79a30.79,30.79,0,0,1,3.09,4.33,1.22,1.22,0,0,1,.26.71c-.09.8,0,1.95-.44,2.31a2.78,2.78,0,0,1-2.44.09c-2.72-1.4-5.36-3-8-4.53-.75-.44-1.43-1-2.14-1.5s-1.2-.34-1.35.49c-.29,1.57-.48,3.17-.78,4.74-.43,2.18-.91,4.35-1.4,6.68a3,3,0,0,1-1.83-2.33c-.9-3.08-.78-6.24-.73-9.39,0-.48-.06-1-.11-1.75-.87.79-1.5,1.39-2.15,2-3.21,2.81-6.41,5.64-9.67,8.4a5.32,5.32,0,0,1-3.73,1.6c-.69,0-1.13-.37-1.08-1a31.72,31.72,0,0,1,.59-3.87c.34-1.68,1.59-2.73,2.81-3.8q4.63-4,9.26-8.09c1.08-1,1-1.12,0-2.18q-4.27-4.73-8.48-9.51a1.29,1.29,0,0,1-.17-1.06,11.55,11.55,0,0,1,.85-2.1,1.4,1.4,0,0,1,2.35-.57C79.06,7.53,81,9,82.88,10.45l4.87,3.64a5.58,5.58,0,0,0,.39-1.38c0-2.08,0-4.17-.14-6.24A9.6,9.6,0,0,1,89.34.63c.46-.79,1-.82,1.69-.18a6.32,6.32,0,0,1,1.52,3.78c.38,2.44.69,4.9,1,7.56.51-.3,1-.54,1.4-.83,3.38-2.24,6.69-4.58,10.15-6.69a25.78,25.78,0,0,1,5.14-2.13,6.19,6.19,0,0,1,2.06,0Z"></path><path d="M66.85,89.88a1.32,1.32,0,0,1-.41.11,21.45,21.45,0,0,0-5.58.7c-3,.61-6.14,1-9.22,1.38-2,.28-4,.49-6,.76a3.67,3.67,0,0,0-.95.39,3.67,3.67,0,0,0,.58,1c5,4.16,10.08,8.23,15,12.46,3.13,2.69,6.38,5.29,8.78,8.72a13,13,0,0,1,2.15,5.8,6.1,6.1,0,0,1-.52,3c-.58,1.42-1,3-2.38,3.94a3.14,3.14,0,0,1-4.35-.23c-2.23-2.09-4.34-4.33-6.65-6.35-3.85-3.36-7.81-6.6-11.72-9.89-2.66-2.24-5.3-4.49-8-6.72a5.78,5.78,0,0,0-1.1-.59,4.34,4.34,0,0,0-.59,1.23c-.31,2.54-.51,5.09-.83,7.63S34.44,118.37,34,121a37.94,37.94,0,0,1-1.51,5.77c-.82,2.29-1.77,4.6-4,5.93a9.12,9.12,0,0,1-2.73.95.87.87,0,0,1-1.08-1c.19-1.16.55-2.3.84-3.44a8,8,0,0,0,.4-1.56c.27-5.12.35-10.26.78-15.36.37-4.29,1.11-8.55,1.73-12.81.52-3.6.1-4.39-3.75-3.68-2.51.46-5.06.69-7.59,1.05-2.31.33-4.6.72-6.91,1-2.65.34-5.3.71-8,.91-1.9.14-2.67-1.25-1.86-3a2.7,2.7,0,0,0,.34-1.21,8.4,8.4,0,0,1,1.61-4.82,2.7,2.7,0,0,1,2-.79c5,0,10,.09,15.06.13a11.9,11.9,0,0,0,1.78-.24,16,16,0,0,0-1-1.56c-2.19-2.73-4.52-5.36-6.58-8.2a57.42,57.42,0,0,1-3.41-6c-.24-.44-.43-.92-.69-1.36-1.48-2.47-.1-4.62.81-6.79.36-.83,1.83-.94,2.86-.23a52.59,52.59,0,0,1,9.43,7.94c2.88,3.21,6,6.2,9,9.27.72.73,1.21.46,1.56-.62a48.81,48.81,0,0,1,5.93-12.89,21.68,21.68,0,0,1,3.66-3.76,2.19,2.19,0,0,1,1.79-.17c.29.1.56.91.5,1.35a29.8,29.8,0,0,1-.78,3.49c-.37,1.4-.76,2.79-1.2,4.16s-1,2.77-1.49,4.17a30.24,30.24,0,0,0-.86,2.91c-.56,2.45-1.13,4.9-1.58,7.37-.19,1.06.26,1.49,1.36,1.5q12.13.12,24.29.19h2.14Z"></path></g></svg>