<svg xmlns="http://www.w3.org/2000/svg" width="48" height="48" viewBox="0 0 82.6 79.59" version="1.1" class="position-absolute spark"><g><path d="M27.38,45.11c4.36-3.67,8.66-7.43,13.12-11a57.65,57.65,0,0,1,8.12-5.59,41.45,41.45,0,0,1,7.91-3.08,7.51,7.51,0,0,1,3.38.33c.26,0,.63.76.55,1.08-.45,2-1,3.89-2.61,5.28-2.78,2.4-5.59,4.76-8.35,7.18A174.89,174.89,0,0,0,29.94,58.73c-2.24,2.68-5.08,3.81-8.17,4.71-.42.12-1.09-.26-1.5-.59a1.79,1.79,0,0,1-.54-1.19c-.15-2.06-.58-4.19-.21-6.16a9.91,9.91,0,0,1,2.54-4.2c1.78-2,3.79-3.86,5.7-5.78Z"></path><path d="M15.05,3.41c1.43-1.56,2.49-3,4.44-3.34C21-.17,21.56.2,21.18,1.71c-.8,3.27-1.71,6.51-2.65,9.74-1.25,4.3-2.47,8.62-3.9,12.86A124.56,124.56,0,0,1,9.89,36.76a33.58,33.58,0,0,1-4.6,6.51c-1.29,1.61-2.65,1.11-4-.48-1.68-2-1.58-4.29-.67-6.67C3.17,29.55,5.48,22.9,8.16,16.4,9.73,12.59,11.82,9,13.72,5.31A15.69,15.69,0,0,1,15.05,3.41Z"></path><path d="M82.6,64.15a8.15,8.15,0,0,1-1.09.87,67.83,67.83,0,0,1-13.36,6.27c-4.91,1.54-9.75,3.28-14.64,4.88q-5,1.65-10.06,3.13a9.72,9.72,0,0,1-2.64.29A1.9,1.9,0,0,1,39,78a12.9,12.9,0,0,1-.39-3.81c.1-1.4,1.74-2.55,3.42-2.93,2.59-.57,5.16-1.28,7.74-1.91q3-.72,5.94-1.4c3.28-.75,6.54-1.6,9.86-2.18C70,65,74.36,63.9,78.89,64c1.19,0,2.39-.09,3.59-.15Z"></path></g></svg>