<svg xmlns="http://www.w3.org/2000/svg" width="82" height="59" viewBox="0 0 188.55 146.78" class="position-absolute paper-plane"><g><path d="M5.5,108.76c2.75-1,5.48-2,8.26-2.92a126.92,126.92,0,0,0,13.88-5.14,8.72,8.72,0,0,1,2-.64c1.13-.2,1.69.4,1.62,1.55s-.08,2.38-.18,3.57A2.13,2.13,0,0,1,29.82,107c-3.95,2.13-7.88,4.28-12.24,5.51-2.26.63-4.46,1.47-6.71,2.14a18.78,18.78,0,0,1-8.64.85,5.08,5.08,0,0,1-.87-.24c-1.51-.59-1.76-1.91-.76-3.16C1.9,110.41,3.69,109.62,5.5,108.76Z"></path><path d="M17.87,146.55c1-1.71,1.87-3.47,2.95-5.11,2.37-3.59,4.85-7.1,7.26-10.66,2.13-3.12,4.33-6.21,6.31-9.43a28.45,28.45,0,0,1,4-4.59c.35-.36.63-.81,1-1.14a3.75,3.75,0,0,1,1-.41c.1.35.35.73.29,1.05A16,16,0,0,1,40,118.6a51.24,51.24,0,0,1-2.15,5.74,59.5,59.5,0,0,1-3.33,5.35,68.86,68.86,0,0,1-8.43,10.57c-2.18,2.28-4.28,4.69-7.17,6.15l-.81.37Z"></path><path d="M15.58,32.85c2.19,1.12,4.35,2.27,6.56,3.33s4.54,2.11,6.83,3.11c1.83.8,3.69,1.53,5.53,2.31s3.79,1.52,5.63,2.41c2.33,1.12,4.61,2.37,6.91,3.56a.78.78,0,0,0,.4.06c1.56-.33,3.15-.6,4.69-1s2.87-1,4.31-1.53c1.83-.66,3.65-1.35,5.48-2q3.48-1.25,7-2.44c1.91-.66,3.84-1.29,5.75-1.95,2.28-.79,4.54-1.59,6.81-2.39,1.82-.65,3.63-1.29,5.44-2l6.48-2.4,5.43-2,5.66-2,4.59-1.6c1.54-.54,3.06-1.09,4.6-1.62,1.25-.43,2.51-.84,3.76-1.26l3.71-1.22c1.31-.44,2.62-.88,3.94-1.3s2.64-.82,4-1.22l4.43-1.33c1.5-.45,3-.9,4.5-1.32s2.9-.8,4.35-1.21L147,14.55l4.52-1.24,4.41-1.22,3.72-1,3.77-1c1-.26,2-.51,3-.73a3,3,0,0,1,.73,0l0,.19c-1,.4-2,.8-3,1.22-1.32.55-2.62,1.15-3.94,1.68-1.09.44-2.2.81-3.31,1.21-.9.32-1.79.66-2.7,1s-1.77.57-2.66.86c-1.23.42-2.45.85-3.68,1.26l-2.79.91-2.65.9-2.74.89-2.67.88-3,1-3.68,1.23-2.85.94-3.67,1.24-2.85.94-3.57,1.2-3.92,1.33c-1.15.39-2.29.81-3.44,1.2-1,.34-2,.65-3,1l-3.32,1.22-4.5,1.64c-1.52.55-3,1.12-4.55,1.66l-3.63,1.27c-1.09.39-2.17.8-3.26,1.18-1.24.45-2.49.87-3.73,1.32-1.6.57-3.19,1.15-4.79,1.71-1.19.42-2.39.8-3.59,1.21s-2.37.82-3.56,1.23-2.62.87-3.92,1.33c-1.11.38-2.22.8-3.33,1.19l-2.83,1c-1.08.38-2.14.79-3.21,1.17-1.3.46-2.61.91-3.92,1.34-1.08.35-2.17.67-3.27,1a5,5,0,0,1-1,.12c-.43,0-.74.17-.77.66,0,.08,0,.2-.06.23-.66.41-.33,1-.25,1.5.17,1,.34,2.06.47,3.1.18,1.45.32,2.91.48,4.37.19,1.65.4,3.31.59,5,.16,1.28.31,2.55.45,3.83.28,2.49.44,5,.84,7.48a70.67,70.67,0,0,1,.78,9.42c.06,2.53.16,5.06.25,7.6,0,.31.06.63.09.94l.17.07A10.65,10.65,0,0,0,54.5,93c.67-1.51,1.3-3,2-4.53s1.27-3,1.93-4.46,1.33-3,2-4.42,1.39-3,2.06-4.45,1.31-3,2-4.56,1.3-2.83,1.94-4.24,1.1-2.52,1.66-3.78c.39-.85.82-1.68,1.2-2.54a14.41,14.41,0,0,0,.56-1.6,3.43,3.43,0,0,1,1.69-1.95c3.09-1.77,6.17-3.58,9.32-5.26,2.56-1.37,5.21-2.58,7.82-3.87,2-1,4-2,6.08-3s4.23-2.09,6.37-3.09q3.78-1.78,7.59-3.49c2.34-1,4.7-2,7-3.06l5.58-2.37c1.57-.66,3.16-1.28,4.73-1.93L131.86,28c1.27-.52,2.55-1,3.82-1.58l4.63-2L144,22.78c1.2-.52,2.42-1,3.62-1.58q2.23-1,4.46-2c.93-.43,1.84-.89,2.77-1.31a2.44,2.44,0,0,1,.66-.15l0,.15c-.68.49-1.34,1-2.05,1.47s-1.5.85-2.25,1.28-1.36.82-2.07,1.19c-1.1.58-2.23,1.13-3.34,1.7-.84.43-1.67.87-2.51,1.28s-1.72.83-2.58,1.25l-2.43,1.21-2.75,1.31-2.62,1.25-3.56,1.66-3.68,1.67c-1.2.54-2.41,1.05-3.61,1.6-1.47.66-2.93,1.34-4.39,2l-4.34,2L110,40.26l-3.57,1.68c-1.23.57-2.46,1.13-3.68,1.71-1.85.87-3.7,1.74-5.54,2.63-1.6.77-3.19,1.57-4.78,2.36L87.52,51l-4,2c-1.12.55-2.27,1.06-3.37,1.64-1.35.72-2.67,1.5-4.2,2.36.81.31,1.48.58,2.15.81,1.63.57,3.27,1.09,4.89,1.68s3.48,1.32,5.21,2,3.29,1.34,5,2c1.46.56,2.94,1.08,4.41,1.61s3.16,1.14,4.75,1.69,3.08,1,4.62,1.53a22.28,22.28,0,0,1,6,2.83c.5.36.75.06,1.06-.25,4.58-4.6,9.14-9.22,13.76-13.78,5.62-5.55,11.33-11,16.94-16.57,3.71-3.67,7.28-7.49,11-11.19q5.85-5.91,12.15-11.34c3.19-2.76,6.35-5.54,9.46-8.38,2.89-2.64,5.67-5.39,8.54-8.06A14.87,14.87,0,0,1,187.89.06c.16-.11.44,0,.66,0a2.57,2.57,0,0,1-.12.55,26.67,26.67,0,0,1-3.92,5.23c-5,5.87-10.59,11.24-16.17,16.59-4.39,4.2-8.68,8.5-12.93,12.84s-8.22,8.64-12.35,12.94c-4.38,4.57-8.81,9.09-13.2,13.66-3.28,3.42-6.49,6.92-9.8,10.32a74.3,74.3,0,0,1-7.78,7.27,4.59,4.59,0,0,1-3.67,1c-.65-.11-.91-.41-.86-1.06a13.23,13.23,0,0,1,.16-1.78,4,4,0,0,1,1.53-2.83c.14-.09.28-.21.52-.39L108.73,74c-1.93-.63-3.85-1.25-5.77-1.89s-3.56-1.21-5.34-1.81c-.46-.15-.82-.17-1.1.44a7.71,7.71,0,0,1-1.36,1.87c-1.33,1.51-2.63,3.06-4.09,4.44s-3,2.45-4.49,3.62c-1.28,1-2.6,1.94-3.92,2.88-2.23,1.59-4.48,3.15-6.71,4.74-2.89,2-5.76,4.14-8.67,6.17Q63.68,96.93,60,99.3c-1.68,1.09-3.42,2.08-5.16,3.07a9.21,9.21,0,0,1-1.78.72c-.36.12-.77.14-.91-.39a.45.45,0,0,0-.24-.32A1.43,1.43,0,0,1,51,101c-.34-2.89-.67-5.79-1-8.68-.09-.86-.08-1.73-.13-2.59-.14-2.69-.21-5.39-.45-8.07-.21-2.44-.62-4.86-.93-7.28-.14-1.14-.28-2.28-.37-3.42-.29-3.34-.61-6.68-.82-10-.2-3.17-.28-6.35-.4-9.52a.75.75,0,0,0-.54-.77l-7.44-3c-2.9-1.17-5.83-2.27-8.68-3.53-3.95-1.74-7.88-3.54-11.75-5.44a36.31,36.31,0,0,1-7.77-5,2.21,2.21,0,0,0-.91-.4C9,33,8.65,32.58,9.23,31.87c.27-.32.4-.74.64-1.09a3.74,3.74,0,0,1,2.66-1.48c1.93-.32,3.87-.5,5.8-.77,2.19-.31,4.37-.66,6.56-1,1.05-.15,2.11-.29,3.15-.47,1.53-.26,3-.55,4.56-.83,1.7-.32,3.39-.64,5.09-.94q2.85-.51,5.71-1c1.11-.18,2.22-.33,3.33-.5l3.69-.59c.87-.14,1.74-.29,2.61-.42,2.69-.4,5.37-.77,8-1.19s5.15-.88,7.72-1.3l5.54-.87c1.86-.3,3.72-.64,5.58-.94s3.53-.55,5.29-.83l5.89-1,2.56-.41c2.78-.41,5.56-.8,8.34-1.23s5.47-.88,8.21-1.3c2-.3,4-.55,6-.83s4.25-.64,6.37-.94,4.14-.55,6.21-.87c1.8-.28,3.6-.63,5.4-.94l2.37-.43c2.27-.4,4.54-.78,6.81-1.21s4.8-.94,7.19-1.44c1.95-.41,3.87-.88,5.82-1.29,1.45-.31,2.91-.55,4.36-.85S163.57,4.33,165,4l4.06-.85,4.28-.95c.8-.17,1.61-.32,2.41-.5,1.2-.28,2.4-.62,3.61-.88A19.32,19.32,0,0,1,182,.46c.27,0,.56.26.84.41-.22.28-.39.71-.67.82-.9.33-1.84.54-2.76.8-.68.2-1.36.44-2,.61s-1.4.29-2.09.46-1.48.41-2.22.61l-.23.08c-1.28.26-2.56.49-3.83.78s-2.62.68-3.94,1c-.73.17-1.48.27-2.22.43s-1.45.39-2.18.58l-.4.11c-1,.22-2.05.46-3.08.67-.84.17-1.69.29-2.53.45s-1.63.37-2.45.56-1.36.33-2,.47-1.66.28-2.48.45-1.7.41-2.55.6c-.63.14-1.25.27-1.88.39-.84.15-1.69.27-2.53.43s-1.83.38-2.75.57c-.69.14-1.37.27-2.06.39l-2.9.49-2.73.48q-1.65.3-3.3.63c-1,.19-1.91.41-2.87.6-.67.14-1.33.27-2,.38-1,.16-1.94.29-2.9.46s-1.92.38-2.88.56l-2.13.38L111,16.6c-.79.13-1.59.25-2.38.39-1.85.32-3.7.67-5.56,1-1.07.18-2.14.29-3.21.46s-2.23.4-3.35.61l-.3.05c-1.15.15-2.3.26-3.45.45-1.78.28-3.54.63-5.32.93-1.11.18-2.23.31-3.34.48l-3.38.56L77.57,22l-3.9.67c-.75.12-1.5.26-2.25.37-1,.15-2.1.27-3.14.44s-2,.4-3.06.6c-.67.13-1.33.26-2,.37l-4.81.82c-1.09.2-2.17.43-3.25.63s-1.94.3-2.9.48-1.79.38-2.69.57l-2.06.41-2.36.43-5.21.93-3,.54-5.31,1c-.73.14-1.46.26-2.19.38-1,.15-2,.28-3,.44l-3.54.59-.24.05c-1.31.15-2.62.29-3.93.46-1,.13-2.05.31-3.07.47ZM72.09,59.93c-.32.61-.68,1.27-1,1.94-.44.94-.86,1.88-1.27,2.83s-.77,1.91-1.17,2.87-.9,2.06-1.34,3.1c-.52,1.26-1,2.54-1.55,3.8-.42,1-.89,1.92-1.32,2.9-.55,1.26-1.08,2.53-1.62,3.8-.44,1-.9,2-1.35,3-.17.38-.32.76-.5,1.14-.28.59-.61,1.17-.87,1.77-.38.89-.71,1.81-1.07,2.71-.13.32-.29.63-.41,1-.3.8-.56,1.62-.88,2.41-.4,1-.85,1.88-1.26,2.83a1.94,1.94,0,0,0,0,.65l.41-.25c2.46-1.73,4.91-3.47,7.38-5.2C68.84,88,73.41,84.79,78,81.64c3.73-2.54,7.53-5,11.29-7.47,2-1.31,3.91-2.66,5.86-4a3.35,3.35,0,0,0,.5-.54C87.67,66.74,80,63.38,72.09,59.93Z"></path></g></svg>